HIERARCHY
ROOT Hips
{
	OFFSET 52.668098 -54.392117 96.645889
	CHANNELS 6 Xposition Yposition Zposition Xrotation Yrotation Zrotation
	JOINT spine
	{
		OFFSET 0.000000 -0.467659 8.132492
		CHANNELS 3 Xrotation Yrotation Zrotation
		JOINT spine1
		{
			OFFSET 0.000000 -0.000004 10.349800
			CHANNELS 3 Xrotation Yrotation Zrotation
			JOINT spine2
			{
				OFFSET 0.000000 0.000000 9.916992
				CHANNELS 3 Xrotation Yrotation Zrotation
				JOINT Neck
				{
					OFFSET 0.000000 -1.213905 25.460991
					CHANNELS 3 Xrotation Yrotation Zrotation
					JOINT Head
					{
						OFFSET 0.000000 -0.000004 7.692444
						CHANNELS 3 Xrotation Yrotation Zrotation
						End Site
						{
							OFFSET 0.000000 6.140625 18.619995
						}
					}
				}
				JOINT RightShoulder
				{
					OFFSET -4.175751 0.581440 10.709587
					CHANNELS 3 Xrotation Yrotation Zrotation
					JOINT RightArm
					{
						OFFSET 0.000000 0.000000 14.046600
						CHANNELS 3 Xrotation Yrotation Zrotation
						JOINT RightArmRoll
						{
							OFFSET 0.000000 -0.000004 7.090973
							CHANNELS 3 Xrotation Yrotation Zrotation
							JOINT RightForeArm
							{
								OFFSET 0.000000 -0.000004 20.653503
								CHANNELS 3 Xrotation Yrotation Zrotation
								JOINT RightForeArmRoll
								{
									OFFSET 0.000000 0.000000 7.957184
									CHANNELS 3 Xrotation Yrotation Zrotation
									JOINT RightHand
									{
										OFFSET 0.000000 -0.000004 15.968307
										CHANNELS 3 Xrotation Yrotation Zrotation
										End Site
										{
											OFFSET 0.000000 0.000000 0.100006
										}
									}
								}
							}
						}
					}
				}
				JOINT LeftShoulder
				{
					OFFSET 4.175751 0.581440 10.709587
					CHANNELS 3 Xrotation Yrotation Zrotation
					JOINT LeftArm
					{
						OFFSET 0.000000 0.000000 14.046600
						CHANNELS 3 Xrotation Yrotation Zrotation
						JOINT LeftArmRoll
						{
							OFFSET 0.000000 -0.000004 7.090973
							CHANNELS 3 Xrotation Yrotation Zrotation
							JOINT LeftForeArm
							{
								OFFSET 0.000000 -0.000004 20.653503
								CHANNELS 3 Xrotation Yrotation Zrotation
								JOINT LeftForeArmRoll
								{
									OFFSET 0.000000 0.000000 7.957184
									CHANNELS 3 Xrotation Yrotation Zrotation
									JOINT LeftHand
									{
										OFFSET 0.000000 -0.000004 15.968307
										CHANNELS 3 Xrotation Yrotation Zrotation
										End Site
										{
											OFFSET 0.000000 0.000000 0.100006
										}
									}
								}
							}
						}
					}
				}
			}
		}
	}
	JOINT RightUpLeg
	{
		OFFSET -7.208340 1.108841 -1.321823
		CHANNELS 3 Xrotation Yrotation Zrotation
		JOINT RightUpLegRoll
		{
			OFFSET 0.000000 -0.000004 18.723801
			CHANNELS 3 Xrotation Yrotation Zrotation
			JOINT RightLeg
			{
				OFFSET 0.000000 0.000004 -23.186600
				CHANNELS 3 Xrotation Yrotation Zrotation
				JOINT RightLegRoll
				{
					OFFSET 0.000000 -0.000004 23.262398
					CHANNELS 3 Xrotation Yrotation Zrotation
					JOINT RightFoot
					{
						OFFSET 0.000000 -0.000004 19.362099
						CHANNELS 3 Xrotation Yrotation Zrotation
						JOINT RightToeBase
						{
							OFFSET 0.000000 0.000000 16.185699
							CHANNELS 3 Xrotation Yrotation Zrotation
							End Site
							{
								OFFSET 0.006859 0.903519 7.838623
							}
						}
					}
				}
			}
		}
	}
	JOINT LeftUpLeg
	{
		OFFSET 7.208340 1.108841 -1.321823
		CHANNELS 3 Xrotation Yrotation Zrotation
		JOINT LeftUpLegRoll
		{
			OFFSET 0.000000 -0.000004 18.723900
			CHANNELS 3 Xrotation Yrotation Zrotation
			JOINT LeftLeg
			{
				OFFSET 0.000000 -0.000004 23.186485
				CHANNELS 3 Xrotation Yrotation Zrotation
				JOINT LeftLegRoll
				{
					OFFSET 0.000000 -0.000004 23.477509
					CHANNELS 3 Xrotation Yrotation Zrotation
					JOINT LeftFoot
					{
						OFFSET 0.000000 -0.000004 19.147003
						CHANNELS 3 Xrotation Yrotation Zrotation
						JOINT LeftToeBase
						{
							OFFSET 0.000000 0.000000 16.185699
							CHANNELS 3 Xrotation Yrotation Zrotation
							End Site
							{
								OFFSET -0.030746 0.903519 7.838623
							}
						}
					}
				}
			}
		}
	}
}
MOTION
Frames: 5
Frame Time: 0.041667
53.182903 -21.445107 65.565994 32.144291 0.466331 0.905954 2.905463 -1.137666 -0.124496 9.824268 -2.281275 -0.179139 11.469831 -2.283401 -0.151767 -19.964786 9.556504 -2.242196 -0.605869 -1.998888 -5.321353 -15.371342 -41.929729 -17.724011 -36.090450 -123.568982 -85.614174 0.000010 0.000010 -0.000006 94.516130 3.350820 -9.135162 -0.000006 0.000008 -2.999991 -4.999696 -7.998767 -0.000034 -17.992899 52.011832 21.228843 -47.948290 122.949033 95.138019 -0.000002 0.000001 0.000012 81.306183 -5.926038 3.425842 -0.000006 -0.000001 3.000008 -5.000224 7.998794 -0.000160 -105.502626 -169.239302 1.279441 179.999991 0.000005 -0.554005 103.308927 -4.501636 -6.320551 0.000000 0.000000 1.370170 68.778803 7.799297 -0.193126 25.456955 -7.355612 -0.000003 -105.320158 169.422515 -1.627988 -0.000019 -0.000004 -0.652925 -74.986769 3.655065 5.607776 0.000009 -0.000004 -1.673670 66.000104 -7.640180 -0.525565 25.456959 7.355623 -0.000001 
53.188206 -21.520817 65.679001 32.215800 0.466866 0.906095 2.901838 -1.136611 -0.125819 9.817065 -2.279206 -0.182155 11.462717 -2.281381 -0.154803 -20.074399 9.546481 -2.233277 -0.606820 -1.985419 -5.320112 -15.397804 -41.951626 -17.759288 -36.352661 -123.689644 -85.829407 0.000007 0.000009 -0.000003 94.319537 3.253004 -8.962713 -0.000005 0.000008 -2.999990 -4.999690 -7.998763 -0.000034 -17.989084 52.030475 21.224243 -48.042089 123.016597 95.158633 -0.000001 -0.000000 0.000011 81.131050 -5.849732 3.328854 -0.000005 -0.000001 3.000013 -5.000226 7.998792 -0.000156 -105.396424 -169.254902 1.257150 179.999991 0.000004 -0.551997 103.423004 -4.523389 -6.322429 -0.000000 0.000000 1.362370 68.806042 7.789538 -0.170683 25.456957 -7.355615 -0.000003 -105.217835 169.413444 -1.612009 -0.000016 -0.000004 -0.650295 -74.874549 3.695026 5.622228 0.000009 -0.000004 -1.665911 66.056638 -7.634499 -0.533312 25.456957 7.355620 -0.000001 
53.176903 -21.592422 65.794098 32.285211 0.468028 0.906030 2.898190 -1.135656 -0.127100 9.809655 -2.277306 -0.185154 11.455290 -2.279510 -0.157827 -20.183148 9.535631 -2.224283 -0.609252 -1.970419 -5.318569 -15.426500 -41.974699 -17.797564 -36.616504 -123.813025 -86.045972 0.000010 0.000009 -0.000007 94.118880 3.152316 -8.787385 -0.000004 0.000009 -2.999989 -4.999692 -7.998761 -0.000032 -17.983173 52.048538 21.217044 -48.132316 123.085063 95.171747 -0.000002 0.000003 0.000009 80.951142 -5.770524 3.229595 -0.000007 0.000001 3.000014 -5.000221 7.998797 -0.000162 -105.286178 -169.270010 1.242956 179.999991 0.000004 -0.550003 103.543537 -4.552436 -6.327153 -0.000000 0.000000 1.355299 68.828199 7.785670 -0.162971 25.456959 -7.355615 -0.000002 -105.113046 169.403895 -1.595506 -0.000019 -0.000004 -0.647637 -74.761311 3.734598 5.636223 0.000009 -0.000003 -1.658109 66.112563 -7.628589 -0.541658 25.456957 7.355623 -0.000003 
53.170303 -21.668922 65.909691 32.352226 0.469815 0.905481 2.894559 -1.134820 -0.128393 9.802086 -2.275564 -0.188274 11.447669 -2.277797 -0.160972 -20.290397 9.523805 -2.214901 -0.613087 -1.953878 -5.316284 -15.458419 -41.999622 -17.840043 -36.887710 -123.941159 -86.270596 0.000010 0.000009 -0.000004 93.914418 3.047499 -8.608160 -0.000004 0.000007 -2.999992 -4.999695 -7.998765 -0.000033 -17.974384 52.066942 21.206329 -48.218861 123.153078 95.175196 0.000001 -0.000001 0.000010 80.767479 -5.688214 3.128334 -0.000008 0.000000 3.000011 -5.000222 7.998790 -0.000164 -105.171369 -169.284681 1.237897 179.999991 0.000005 -0.549006 103.669690 -4.588097 -6.335777 -0.000000 0.000001 1.348840 68.846073 7.786931 -0.167991 25.456955 -7.355613 -0.000002 -105.005218 169.393322 -1.578087 -0.000016 -0.000005 -0.644959 -74.646980 3.773936 5.649753 0.000009 -0.000004 -1.650269 66.168264 -7.622606 -0.550311 25.456957 7.355621 -0.000001 
53.162704 -21.743206 66.020798 32.417041 0.472149 0.904545 2.890915 -1.134075 -0.129698 9.794319 -2.273952 -0.191502 11.439950 -2.276203 -0.164223 -20.396289 9.511288 -2.205161 -0.617998 -1.936006 -5.313369 -15.493147 -42.026342 -17.886211 -37.166406 -124.071930 -86.503519 0.000011 0.000008 -0.000004 93.705981 2.938781 -8.425104 -0.000004 0.000010 -2.999989 -4.999700 -7.998763 -0.000032 -17.963181 52.085626 21.192632 -48.304515 123.219591 95.173031 -0.000002 0.000001 0.000011 80.579997 -5.602869 3.025106 -0.000005 0.000002 3.000012 -5.000220 7.998794 -0.000163 -105.052462 -169.299052 1.240062 179.999991 0.000004 -0.549006 103.800823 -4.629486 -6.346442 -0.000000 0.000001 1.342929 68.860273 7.792614 -0.184126 25.456957 -7.355616 -0.000003 -104.894603 169.381848 -1.561114 -0.000016 -0.000004 -0.642267 -74.531598 3.813092 5.662957 0.000009 -0.000004 -1.642390 66.223533 -7.616573 -0.559190 25.456957 7.355622 -0.000001 
